<?xml version="1.0" encoding="iso-8859-1"?>
<!-- Generator: Adobe Illustrator 16.0.0, SVG Export Plug-In . SVG Version: 6.00 Build 0)  -->
<!DOCTYPE svg PUBLIC "-//W3C//DTD SVG 1.1//EN" "http://www.w3.org/Graphics/SVG/1.1/DTD/svg11.dtd">
<svg version="1.1" xmlns="http://www.w3.org/2000/svg" xmlns:xlink="http://www.w3.org/1999/xlink" x="0px" y="0px" width="25px"
	 height="25px" viewBox="0 0 25 25" style="enable-background:new 0 0 25 25;" xml:space="preserve">
<g id="bleu">
	<g>
		<path style="fill:none;" d="M6.446,9.375c0-1.149-0.935-2.083-2.083-2.083H3.305c-0.712,1.253-1.181,2.663-1.329,4.167h2.386
			C5.511,11.458,6.446,10.524,6.446,9.375z"/>
		<path style="fill:none;" d="M13.541,12.5c0,0.574,0.467,1.041,1.043,1.041h1.9c0.676,0,1.225,0.55,1.225,1.226
			c0,0.419-0.221,0.799-0.57,1.029c-0.285,0.187-0.473,0.507-0.473,0.87c0,0.576,0.467,1.043,1.043,1.043h3.986
			c0.875-1.54,1.383-3.315,1.383-5.209c0-0.352-0.02-0.699-0.055-1.042h-8.439C14.008,11.458,13.541,11.926,13.541,12.5z"/>
		<path style="fill:none;" d="M9.862,20.204c-0.113-0.196-0.325-0.319-0.552-0.319H8.333c-0.227,0-0.438,0.121-0.552,0.319
			L7.294,21.05c-0.114,0.196-0.114,0.442,0,0.638l0.003,0.006c0.75,0.426,1.554,0.766,2.403,1c0.059-0.049,0.123-0.094,0.161-0.162
			l0.489-0.845c0.113-0.196,0.113-0.442,0-0.638L9.862,20.204z"/>
		<path style="fill:none;" d="M19.439,19.791h-1.541c-1.547,0-2.994-1.035-3.266-2.558c-0.1-0.569-0.045-1.116,0.129-1.608h-0.006
			c-1.539,0-2.973-1.033-3.246-2.55c-0.355-1.975,1.162-3.7,3.074-3.7h8.021C21.27,5.063,17.244,1.923,12.5,1.923
			c-3.027,0-5.754,1.286-7.685,3.332c2.083,0.229,3.714,1.979,3.714,4.121c0,2.298-1.869,4.166-4.167,4.166H1.976
			c0.263,2.668,1.519,5.047,3.393,6.762c0.042-0.099,0.068-0.201,0.121-0.295l0.487-0.846c0.484-0.838,1.388-1.359,2.356-1.359H9.31
			c0.969,0,1.872,0.521,2.356,1.361l0.489,0.846c0.484,0.84,0.484,1.882,0,2.721l-0.186,0.322c0.178,0.008,0.354,0.024,0.532,0.024
			c3.041,0,5.779-1.298,7.711-3.359C19.959,19.762,19.703,19.791,19.439,19.791z"/>
		<path style="fill:#1E284B;" d="M12.5,0C8.33,0,4.64,2.061,2.368,5.208c-0.47,0.651-0.877,1.347-1.217,2.083
			C0.592,8.506,0.21,9.82,0.067,11.205C0.024,11.631,0,12.062,0,12.5c0,0.307,0.024,0.607,0.046,0.908
			c0.287,3.954,2.421,7.398,5.538,9.484c1.364,0.914,2.914,1.568,4.584,1.886C10.924,24.922,11.703,25,12.5,25
			C19.393,25,25,19.393,25,12.5S19.393,0,12.5,0z M23.078,12.5c0,1.894-0.508,3.669-1.383,5.209h-3.986
			c-0.576,0-1.043-0.467-1.043-1.043c0-0.363,0.188-0.684,0.473-0.87c0.35-0.23,0.57-0.609,0.57-1.029
			c0-0.676-0.549-1.226-1.225-1.226h-1.9c-0.576,0-1.043-0.467-1.043-1.041c0-0.574,0.467-1.042,1.043-1.042h8.439
			C23.057,11.801,23.078,12.148,23.078,12.5z M3.305,7.292h1.056c1.149,0,2.083,0.935,2.083,2.083s-0.935,2.083-2.083,2.083H1.976
			C2.124,9.954,2.593,8.545,3.305,7.292z M10.351,21.688l-0.489,0.845c-0.04,0.069-0.102,0.114-0.161,0.161
			c-0.85-0.232-1.653-0.574-2.403-1l-0.004-0.006c-0.114-0.195-0.114-0.441,0-0.638l0.487-0.846
			c0.114-0.196,0.326-0.319,0.552-0.319H9.31c0.227,0,0.438,0.123,0.552,0.32l0.488,0.846
			C10.463,21.246,10.463,21.492,10.351,21.688z M12.5,23.077c-0.178,0-0.354-0.017-0.532-0.024l0.188-0.322
			c0.484-0.84,0.484-1.883,0-2.721l-0.491-0.848c-0.483-0.84-1.386-1.361-2.355-1.361H8.333c-0.969,0-1.872,0.521-2.357,1.361
			L5.49,20.008c-0.054,0.094-0.079,0.196-0.121,0.295c-1.874-1.715-3.131-4.094-3.393-6.762h2.386c2.298,0,4.167-1.868,4.167-4.166
			c0-2.142-1.631-3.892-3.714-4.121c1.93-2.046,4.658-3.332,7.685-3.332c4.744,0,8.77,3.141,10.105,7.452h-8.021
			c-1.912,0-3.429,1.725-3.074,3.7c0.272,1.517,1.707,2.55,3.246,2.55h0.006c-0.174,0.49-0.229,1.039-0.129,1.608
			c0.271,1.522,1.719,2.558,3.266,2.558h1.541c0.264,0,0.52-0.029,0.771-0.073C18.279,21.779,15.541,23.077,12.5,23.077z"/>
	</g>
</g>
<g id="Layer_1" style="display:none;">
	<g style="display:inline;">
		<path style="fill:none;" d="M14.584,9.375h8.021C21.27,5.063,17.244,1.923,12.5,1.923c-3.027,0-5.754,1.286-7.685,3.332
			c2.083,0.229,3.714,1.979,3.714,4.121c0,2.298-1.869,4.166-4.167,4.166H1.976c0.261,2.668,1.519,5.047,3.393,6.762
			c0.042-0.099,0.067-0.201,0.121-0.295l0.486-0.846c0.485-0.84,1.389-1.361,2.357-1.361h0.977c0.969,0,1.872,0.521,2.355,1.361
			l0.491,0.848c0.484,0.838,0.484,1.881,0,2.721l-0.188,0.322c0.178,0.008,0.354,0.024,0.532,0.024c3.041,0,5.779-1.298,7.711-3.359
			c-0.252,0.044-0.508,0.073-0.771,0.073h-1.541c-1.547,0-2.994-1.035-3.266-2.558c-0.1-0.569-0.045-1.118,0.129-1.608h-0.006
			c-1.539,0-2.973-1.033-3.246-2.55C11.155,11.1,12.672,9.375,14.584,9.375z"/>
		<path style="fill:#1E2949;" d="M12.5,0C8.33,0,4.64,2.061,2.368,5.208c-0.47,0.651-0.877,1.347-1.217,2.083
			C0.592,8.506,0.21,9.82,0.067,11.205C0.024,11.631,0,12.062,0,12.5c0,0.307,0.024,0.607,0.046,0.908
			c0.287,3.954,2.421,7.398,5.538,9.484c1.364,0.914,2.914,1.568,4.584,1.886C10.924,24.922,11.703,25,12.5,25
			C19.393,25,25,19.393,25,12.5S19.393,0,12.5,0z M11.51,13.075c0.272,1.517,1.707,2.55,3.246,2.55h0.006
			c-0.174,0.49-0.229,1.039-0.129,1.608c0.271,1.522,1.719,2.558,3.266,2.558h1.541c0.264,0,0.52-0.029,0.771-0.073
			c-1.932,2.062-4.67,3.359-7.711,3.359c-0.178,0-0.354-0.017-0.532-0.024l0.188-0.322c0.484-0.84,0.484-1.883,0-2.721l-0.491-0.848
			c-0.483-0.84-1.386-1.361-2.355-1.361H8.333c-0.969,0-1.872,0.521-2.357,1.361L5.49,20.008c-0.054,0.094-0.079,0.196-0.121,0.295
			c-1.874-1.715-3.131-4.094-3.393-6.762h2.386c2.298,0,4.167-1.868,4.167-4.166c0-2.142-1.631-3.892-3.714-4.121
			c1.93-2.046,4.658-3.332,7.685-3.332c4.744,0,8.77,3.141,10.105,7.452h-8.021C12.672,9.375,11.155,11.1,11.51,13.075z"/>
	</g>
	<path style="display:inline;fill:#D2162F;" d="M23.078,12.5c0,1.894-0.508,3.669-1.383,5.209h-3.986
		c-0.576,0-1.043-0.467-1.043-1.043c0-0.363,0.188-0.684,0.473-0.87c0.35-0.23,0.57-0.609,0.57-1.029
		c0-0.676-0.549-1.226-1.225-1.226h-1.9c-0.576,0-1.043-0.467-1.043-1.041c0-0.574,0.467-1.042,1.043-1.042h8.439
		C23.057,11.801,23.078,12.148,23.078,12.5z"/>
	<path style="display:inline;fill:#D2162F;" d="M3.305,7.292h1.056c1.149,0,2.083,0.935,2.083,2.083s-0.935,2.083-2.083,2.083H1.976
		C2.124,9.954,2.593,8.545,3.305,7.292z"/>
	<path style="display:inline;fill:#D2162F;" d="M10.351,21.688l-0.489,0.845c-0.04,0.069-0.102,0.114-0.161,0.161
		c-0.85-0.232-1.653-0.574-2.403-1l-0.004-0.006c-0.114-0.195-0.114-0.441,0-0.638l0.487-0.846c0.114-0.196,0.326-0.319,0.552-0.319
		H9.31c0.227,0,0.438,0.123,0.552,0.32l0.488,0.846C10.463,21.246,10.463,21.492,10.351,21.688z"/>
</g>
</svg>
